<svg xmlns="http://www.w3.org/2000/svg" width="75.769" height="84.524" viewBox="0 0 75.769 84.524">
  <title>apple</title>
  <g>
    <path d="M39.814,6.445C35.07,12.156,35.9,21.078,35.9,21.078s9.357-.454,14.1-6.165S53.5.34,53.5.34,44.559.735,39.814,6.445Z" fill="#bddd5d"/>
    <path d="M37.886,28.524c-.044,0-.088,0-.133,0A2,2,0,0,1,35.888,26.4c.04-.651.788-15.514-12.853-22.62A2,2,0,1,1,24.883.228c16.005,8.338,15.045,25.693,15,26.427A2,2,0,0,1,37.886,28.524Z" fill="#3a3735"/>
    <path d="M69.777,27.841c-2.889-3.881-8.174-7.762-17.5-7.315-4.244.2-10.388,2-14.388,6-4-4-10.145-5.794-14.389-6-9.33-.447-14.615,3.434-17.5,7.315A30.247,30.247,0,0,0,.168,49.09c1.7,16.072,9.787,25.815,17.548,31.76a16.824,16.824,0,0,0,10.255,3.674c6.011,0,8.089-2.138,9.912-3.841h0c1.823,1.7,3.9,3.841,9.912,3.841A16.822,16.822,0,0,0,58.053,80.85C65.814,74.905,73.906,65.162,75.6,49.09A30.247,30.247,0,0,0,69.777,27.841Z" fill="#e52c54"/>
    <path d="M8.168,47.09a30.247,30.247,0,0,1,5.824-21.249,17.428,17.428,0,0,1,6.358-5.289c-7.4.458-11.812,3.869-14.358,7.289A30.247,30.247,0,0,0,.168,49.09c1.7,16.072,9.787,25.815,17.548,31.76a16.824,16.824,0,0,0,10.255,3.674c3.912,0,6.147-.909,7.741-2.011a16.854,16.854,0,0,1-10-3.663C17.955,72.905,9.863,63.162,8.168,47.09Z" fill="#d1194a"/>
  </g>
</svg>
