<svg xmlns="http://www.w3.org/2000/svg" width="92.502" height="82.068" viewBox="0 0 92.502 82.068">
  <title>bananas</title>
  <g>
    <path d="M82.615,24.537c-.1-3.933-3.706-8.429-5.189-12.425a4.142,4.142,0,0,1-.166-2.073l.8-5.15A3.439,3.439,0,0,0,74.448.929l-1.786.113a2.3,2.3,0,0,0-2.035,1.577l-.533,1.636a4.816,4.816,0,0,0-.2,2.078l.661,5.458c.453,1.659-.484,5.48-1.355,7-2.613,4.576-9.153,18.345-24.913,22.649-10.23,2.794-18.508,1.122-25.095-.149-5.447-1.088-15.616-1.982-16-2-1.925-.086-3.766,4.23-3.022,5.574C12.3,66.8,43.629,63.453,51.813,61.178,72.628,55.393,83.029,40.237,82.615,24.537Z" fill="#f2cd11"/>
    <path d="M2.239,43.389A10.247,10.247,0,0,0,2.753,39.4C1,39.9-.518,43.63.169,44.871c.251.455.523.882.791,1.315A11.663,11.663,0,0,0,2.239,43.389Z" fill="#3a3735"/>
    <path d="M15.392,58.6c13.84,6.249,30.728,4.159,36.422,2.576,20.814-5.785,31.215-20.941,30.8-36.641-.1-3.933-3.706-8.429-5.189-12.425a4.142,4.142,0,0,1-.166-2.073l.581-3.732-.188-2.592a3.747,3.747,0,0,0-.126-.681,3.684,3.684,0,0,0-1.8-.373l-1.876.132a2.393,2.393,0,0,0-2.122,1.6l-.544,1.648a4.649,4.649,0,0,0-.192,2.087l.749,5.471a8.542,8.542,0,0,1-.185,3.694,14.04,14.04,0,0,1-.443,3.883c-1.8,5.67-5.713,22.4-22.676,31.066C37.424,57.871,27.487,58.112,19.6,58.368,18.354,58.4,16.907,58.488,15.392,58.6Z" opacity="0.06"/>
    <path d="M90.45,22.744c-1.432-4.169-6.793-7.763-9.719-11.536a4.626,4.626,0,0,1-.874-2.16l-.873-5.773A3.852,3.852,0,0,0,73.792.258l-1.871.72a2.57,2.57,0,0,0-1.645,2.369l-.02,1.928a5.393,5.393,0,0,0,.481,2.289l2.539,5.61c1.042,1.62,1.324,6.019.905,7.942C72.926,26.884,70.563,43.8,55.166,53.688c-9.995,6.422-19.4,7.417-26.869,8.27-6.186.668-17.354,3.128-17.768,3.238-2.087.555-2.6,5.785-1.357,6.972,20.331,19.357,52.686,5.26,60.669.08C90.141,59.074,96.166,39.383,90.45,22.744Z" fill="#ffe54c"/>
    <path d="M90.45,22.744c-.832-2.422-2.993-4.648-5.229-6.829,3.04,12.313,3.53,27.171-9.308,41.19-13.8,15.07-40.261,17.229-48.422,17.773C21.98,75.245,13.8,73.3,9.06,71.989a1.432,1.432,0,0,0,.112.179c20.331,19.357,52.686,5.26,60.669.08C90.141,59.074,96.166,39.383,90.45,22.744Z" fill="#f2cd11"/>
    <path d="M10.886,69.889a11.486,11.486,0,0,0-.792-4.441c-1.7,1.128-2.073,5.624-.922,6.72.421.4.855.767,1.286,1.139A13.028,13.028,0,0,0,10.886,69.889Z" fill="#3a3735"/>
  </g>
</svg>
