<svg xmlns="http://www.w3.org/2000/svg" width="88" height="88" viewBox="0 0 88 88">
  <title>broccoli</title>
  <g>
    <path d="M88,36A13.99,13.99,0,0,0,75.992,22.158c0-.053.008-.105.008-.158A13.972,13.972,0,0,0,57.036,8.922a13.984,13.984,0,0,0-26.072,0A13.972,13.972,0,0,0,12,22c0,.053.007.105.008.158a13.982,13.982,0,0,0,0,27.684c0,.053-.008.105-.008.158A13.972,13.972,0,0,0,30.964,63.078a13.984,13.984,0,0,0,26.072,0A13.972,13.972,0,0,0,76,50c0-.053-.007-.1-.008-.158A13.99,13.99,0,0,0,88,36Z" fill="#7b9e3a"/>
    <path d="M44,46.464c-6.158-.322-18.184,3.137-12.123,12.223,4.051,6.4,4.049,17.625,4.049,29.313H52.074c0-11.688,0-22.913,4.049-29.313C62.184,49.6,50.158,46.142,44,46.464Z" fill="#bddd5d"/>
    <path d="M44,46.464a17.623,17.623,0,0,0-2,.029c6.383.405,15.581,4.013,10.123,12.194-4.051,6.4-4.049,17.625-4.049,29.313h4c0-11.688,0-22.913,4.049-29.313C62.184,49.6,50.158,46.142,44,46.464Z" fill="#a1cc56"/>
    <path d="M40,62s1.348-10.532-2.228-14.812a14.259,14.259,0,0,0-5.186,2.438C34.555,51.781,38.85,56.931,40,62Z" fill="#a1cc56"/>
    <circle cx="45" cy="39" r="15" fill="#7b9e3a"/>
    <g>
      <circle cx="61" cy="49" r="9" fill="#7b9e3a"/>
      <circle cx="27" cy="49" r="9" fill="#7b9e3a"/>
    </g>
    <path d="M28.635,20.994a1,1,0,0,1-.977-.79,6,6,0,1,1,11.733-2.519,1,1,0,1,1-1.955.419,4,4,0,0,0-7.823,1.68,1,1,0,0,1-.767,1.188A1.029,1.029,0,0,1,28.635,20.994Z" fill="#5b7838"/>
    <path d="M28.058,48.89a10,10,0,1,1,6.235-17.817,7.981,7.981,0,0,1,13.469,4.265,1,1,0,0,1-1.969.355,5.972,5.972,0,0,0-10.624-2.6,1,1,0,0,1-1.49.1A7.992,7.992,0,1,0,23.517,45.458a7.918,7.918,0,0,0,5.982,1.3,1,1,0,1,1,.355,1.969A10.215,10.215,0,0,1,28.058,48.89Z" fill="#5b7838"/>
    <path d="M67,29.572a1.056,1.056,0,0,1-.208-.021,1,1,0,0,1-.771-1.186,7,7,0,0,0-13.7-2.9,1,1,0,0,1-1.957-.414,9,9,0,0,1,17.61,3.732A1,1,0,0,1,67,29.572Z" fill="#5b7838"/>
  </g>
</svg>
