<svg xmlns="http://www.w3.org/2000/svg" width="85.702" height="86.959" viewBox="0 0 85.702 86.959">
  <title>carrot</title>
  <g>
    <g>
      <path d="M60,27.7a2,2,0,0,1-1.828-2.81l10.483-23.7a2,2,0,0,1,3.658,1.617l-10.483,23.7A2,2,0,0,1,60,27.7Z" fill="#a1cc56"/>
      <path d="M60,27.7a2,2,0,0,1-.81-3.83l23.7-10.482A2,2,0,1,1,84.51,17.05l-23.7,10.482A1.993,1.993,0,0,1,60,27.7Z" fill="#a1cc56"/>
      <path d="M60,27.7a2,2,0,0,1-1.414-3.414L78.322,4.552A2,2,0,1,1,81.15,7.38L61.413,27.117A1.994,1.994,0,0,1,60,27.7Z" fill="#bddd5d"/>
    </g>
    <path d="M60.63,26.329c-6.389-6.455-14.162-10.974-21.709-2.57a225.972,225.972,0,0,0-14.712,18.52C11.752,59.9,6.783,68.851,3.658,74.566.074,81.119-.989,84.029.971,85.988s4.869.9,11.422-2.687c5.715-3.125,14.669-8.094,32.287-20.551A225.972,225.972,0,0,0,63.2,48.038C71.6,40.491,67.085,32.718,60.63,26.329Z" fill="#f9a435"/>
    <path d="M60.63,26.329q-1.067-1.076-2.183-2.06c5.235,5.935,7.98,12.818.511,19.526A226.069,226.069,0,0,1,40.437,58.507C22.819,70.964,13.865,75.933,8.15,79.059c-3.662,2-6.162,3.185-8.018,3.526a3.51,3.51,0,0,0,.839,3.4c1.959,1.96,4.869.9,11.422-2.687,5.715-3.125,14.669-8.094,32.287-20.551A225.972,225.972,0,0,0,63.2,48.038C71.6,40.491,67.085,32.718,60.63,26.329Z" opacity="0.06"/>
    <path d="M35.737,27.669a.93.93,0,0,0-.131-.087c-.394.47-.821.985-1.263,1.521l8.03,8.031a1,1,0,0,0,1.414-1.414Z" fill="#e0861b"/>
    <path d="M52.565,56.864a.952.952,0,0,0-.134-.2L44.363,48.6a1,1,0,0,0-1.414,1.414l8.06,8.059Q51.8,57.46,52.565,56.864Z" fill="#e0861b"/>
    <path d="M28.973,51.759a1,1,0,0,0,1.414-1.414l-6.921-6.921c-.012-.012-.028-.016-.041-.028-.391.556-.785,1.115-1.161,1.653Z" fill="#e0861b"/>
    <path d="M35.13,68.789l-6.92-6.921A1,1,0,0,0,26.8,63.282L33.716,70.2c.022.021.05.029.073.048.518-.346,1.037-.693,1.576-1.057A.981.981,0,0,0,35.13,68.789Z" fill="#e0861b"/>
    <path d="M15.71,66.676a1,1,0,0,0,1.414-1.414L12.172,60.31c-.025-.025-.058-.034-.085-.057-.375.591-.734,1.162-1.081,1.719Z" fill="#e0861b"/>
    <path d="M18.291,79.991a1.016,1.016,0,0,0-.149-.224l-4.951-4.951a1,1,0,1,0-1.414,1.414L16.541,81Q17.377,80.521,18.291,79.991Z" fill="#e0861b"/>
  </g>
</svg>
