<svg xmlns="http://www.w3.org/2000/svg" width="84" height="84" viewBox="0 0 84 84">
  <title>donut</title>
  <g>
    <path d="M42,0A42,42,0,1,0,84,42,42,42,0,0,0,42,0Zm0,56.1A14.1,14.1,0,1,1,56.1,42,14.1,14.1,0,0,1,42,56.1Z" fill="#fad1a5"/>
    <g>
      <path d="M42,23.9A14,14,0,0,0,28.058,40a14.082,14.082,0,0,1,27.884,0A14,14,0,0,0,42,23.9Z" fill="#efb67d"/>
      <path d="M42,80A41.965,41.965,0,0,1,.1,40c-.032.667-.1,1.325-.1,2a42,42,0,0,0,84,0c0-.675-.069-1.333-.1-2A41.965,41.965,0,0,1,42,80Z" fill="#efb67d"/>
    </g>
    <path d="M71.573,29.751c-1.724-4.155-.985-10.075-4.117-13.207S58.4,14.151,54.249,12.427C50.24,10.765,46.61,6,42,6s-8.24,4.765-12.249,6.427c-4.155,1.724-10.075.985-13.207,4.117S14.151,25.6,12.427,29.751C10.765,33.76,6,37.39,6,42s4.765,8.24,6.427,12.248c1.724,4.156.985,10.076,4.117,13.208s9.052,2.393,13.207,4.117C33.76,73.235,37.39,78,42,78s8.24-4.765,12.249-6.427c4.155-1.724,10.075-.985,13.207-4.117s2.393-9.052,4.117-13.207C73.235,50.24,78,46.61,78,42S73.235,33.76,71.573,29.751ZM42,56A14,14,0,1,1,56,42,14,14,0,0,1,42,56Z" fill="#ff80a1"/>
    <path d="M42,25.316A13.369,13.369,0,0,0,28.671,37.723a14,14,0,0,1,26.658,0A13.369,13.369,0,0,0,42,25.316Z" fill="#ef6c94"/>
    <g>
      <path d="M60.4,27.749a1,1,0,0,1-.994-.9L58.984,22.6a1,1,0,0,1,.9-1.094,1.016,1.016,0,0,1,1.094.9L61.4,26.65a1,1,0,0,1-.9,1.094C60.467,27.747,60.434,27.749,60.4,27.749Z" fill="#fad1a5"/>
      <path d="M13.324,45.123a1,1,0,0,1-.994-.9l-.422-4.246a1,1,0,0,1,.9-1.094,1.012,1.012,0,0,1,1.093.9l.422,4.246a1,1,0,0,1-.9,1.094C13.391,45.121,13.357,45.123,13.324,45.123Z" fill="#fad1a5"/>
      <path d="M21.479,22.112a1,1,0,0,1-.1-1.995l4.246-.422a1,1,0,0,1,.2,1.991l-4.246.421C21.546,22.11,21.513,22.112,21.479,22.112Z" fill="#ffe54c"/>
      <path d="M34.934,26.185a1,1,0,0,1-.955-1.3l1.273-4.073a1,1,0,0,1,1.908.6l-1.272,4.072A1,1,0,0,1,34.934,26.185Z" fill="#ede7e2"/>
      <path d="M61,41.106a1,1,0,0,1-.721-1.693l2.957-3.077a1,1,0,0,1,1.442,1.387L61.72,40.8A1,1,0,0,1,61,41.106Z" fill="#e52c54"/>
      <path d="M48.465,22.112a1,1,0,0,1-.9-1.436l1.865-3.838a1,1,0,1,1,1.8.873l-1.864,3.838A1,1,0,0,1,48.465,22.112Z" fill="#a1cc56"/>
      <path d="M53.356,67.955a1,1,0,0,1-.3-1.952l4.063-1.3a1,1,0,0,1,.61,1.9l-4.064,1.3A1.011,1.011,0,0,1,53.356,67.955Z" fill="#bddd5d"/>
      <path d="M36.629,69.372a1,1,0,0,1-.968-.752L34.6,64.486a1,1,0,0,1,1.937-.5l1.06,4.134a1,1,0,0,1-.721,1.217A1.017,1.017,0,0,1,36.629,69.372Z" fill="#586469"/>
      <path d="M20.966,61.246a1,1,0,0,1-.994-.9L19.55,56.1a1,1,0,0,1,.9-1.094,1.014,1.014,0,0,1,1.094.9l.422,4.246a1,1,0,0,1-.9,1.094C21.032,61.244,21,61.246,20.966,61.246Z" fill="#a1cc56"/>
      <path d="M46.078,62.438a.993.993,0,0,1-.228-.027L41.7,61.44a1,1,0,0,1,.455-1.947l4.155.971a1,1,0,0,1-.227,1.974Z" fill="#ffe54c"/>
      <path d="M65.859,52.417a1,1,0,0,1-.71-1.7l3-3.031a1,1,0,0,1,1.42,1.408l-3,3.031A1,1,0,0,1,65.859,52.417Z" fill="#a1cc56"/>
      <path d="M40.577,17.714a.956.956,0,0,1-.159-.013,1,1,0,0,1-.829-1.145l.676-4.213a1,1,0,0,1,1.974.316l-.676,4.213A1,1,0,0,1,40.577,17.714Z" fill="#586469"/>
      <path d="M24.164,47.362a1,1,0,0,1-.759-.348l-2.781-3.238a1,1,0,1,1,1.518-1.3l2.781,3.237a1,1,0,0,1-.759,1.651Z" fill="#c75828"/>
      <path d="M16.25,33.106a1,1,0,0,1-.5-1.866l3.7-2.129a1,1,0,0,1,1,1.733l-3.7,2.129A1,1,0,0,1,16.25,33.106Z" fill="#e52c54"/>
      <path d="M70.057,42.185a1,1,0,0,1-.975-1.228l.971-4.155A1,1,0,1,1,72,37.257l-.971,4.155A1,1,0,0,1,70.057,42.185Z" fill="#c75828"/>
      <path d="M56.809,59.144a1.029,1.029,0,0,1-.288-.042,1,1,0,0,1-.67-1.246l1.223-4.086a1,1,0,0,1,1.916.574l-1.223,4.087A1,1,0,0,1,56.809,59.144Z" fill="#ede7e2"/>
    </g>
  </g>
</svg>
