<svg xmlns="http://www.w3.org/2000/svg" width="88" height="88" viewBox="0 0 88 88">
  <title>drumstick</title>
  <g>
    <path d="M82.711,41.859c7.117-8.69,7.731-24.1-2.368-34.2s-25.512-9.485-34.2-2.368c-9.226,7.557-15.993,15.505-19.192,35.155a118.931,118.931,0,0,1-5.3,19.815c-.833,2.312,2.264,3.646,2.366,3.729.083.1,1.417,3.2,3.729,2.366a118.931,118.931,0,0,1,19.815-5.3C67.206,57.852,75.154,51.085,82.711,41.859Z" fill="#ffb45a"/>
    <path d="M80.343,7.657a26.53,26.53,0,0,0-2.112-1.888c8.09,10.036,7.118,23.985.48,32.09-7.557,9.226-15.5,15.993-35.155,19.192a118.931,118.931,0,0,0-19.815,5.3,2.14,2.14,0,0,1-1.9-.2,5.685,5.685,0,0,0,2.167,1.834c.083.1,1.417,3.2,3.729,2.366a118.931,118.931,0,0,1,19.815-5.3c19.65-3.2,27.6-9.966,35.155-19.192C89.828,33.169,90.442,17.755,80.343,7.657Z" fill="#f9a435"/>
    <g>
      <path d="M17.816,76.279l9.925-9.925h0a13.9,13.9,0,0,0,3.445-7.011,2.189,2.189,0,0,0-2.545-2.5,16.309,16.309,0,0,0-6.995,3.417l-9.925,9.925A6.456,6.456,0,1,0,7.753,80.247a6.525,6.525,0,1,0,10.063-3.968Z" fill="#ede7e2"/>
      <path d="M17.816,76.279l9.925-9.925h0a13.9,13.9,0,0,0,3.445-7.011,2.168,2.168,0,0,0-.018-.725L15.661,74.124a6.447,6.447,0,0,1-7.1,10.757,6.474,6.474,0,1,0,9.252-8.6Z" opacity="0.08"/>
    </g>
  </g>
</svg>
