<svg xmlns="http://www.w3.org/2000/svg" width="88" height="88" viewBox="0 0 88 88">
  <title>ham</title>
  <g>
    <path d="M17.893,77.415a6.006,6.006,0,0,0-.8-.657l8.843-8.843-5.846-5.846-8.843,8.843a6.006,6.006,0,0,0-.657-.805A6.2,6.2,0,1,0,7.436,80.564a6.2,6.2,0,1,0,10.457-3.149Z" fill="#ede7e2"/>
    <path d="M17.088,76.758l8.843-8.843-2.067-2.067-8.843,8.843a6.084,6.084,0,0,1,.8.657,6.191,6.191,0,0,1-7.612,9.66,6.2,6.2,0,1,0,9.679-7.593A6.006,6.006,0,0,0,17.088,76.758Z" opacity="0.08"/>
    <path d="M85.854,48.915,62.469,25.531,39.085,2.146S24.47,13.839,21.547,25.531c-2.127,8.507,0,17.538-4.385,27.769-3.641,8.5,2.923,14.615,2.923,14.615S26.2,74.479,34.7,70.838c10.231-4.385,19.262-2.258,27.769-4.385C74.161,63.53,85.854,48.915,85.854,48.915Z" fill="#b06841"/>
    <path d="M81.874,44.935c-3.779,4.2-12.62,13.1-21.472,15.318-8.507,2.126-17.538,0-27.769,4.384-8.5,3.641-14.615-2.923-14.615-2.923a13.271,13.271,0,0,1-1.925-2.452,14.15,14.15,0,0,0,3.992,8.653S26.2,74.479,34.7,70.838c10.231-4.385,19.262-2.258,27.769-4.385C74.161,63.53,85.854,48.915,85.854,48.915Z" fill="#8f5229" opacity="0.5"/>
    <ellipse cx="62.469" cy="25.531" rx="14.468" ry="33.07" transform="translate(0.244 51.65) rotate(-45)" fill="#f57f7f"/>
    <ellipse cx="62.469" cy="25.531" rx="8.268" ry="24.803" transform="translate(0.244 51.65) rotate(-45)" fill="#faa096"/>
    <ellipse cx="62.469" cy="25.531" rx="2.067" ry="8.268" transform="translate(0.244 51.65) rotate(-45)" fill="#fff"/>
  </g>
</svg>
