<svg xmlns="http://www.w3.org/2000/svg" width="84" height="74" viewBox="0 0 84 74">
  <title>hamburger</title>
  <g>
    <path d="M5,60H79a1,1,0,0,1,1,1V72a2,2,0,0,1-2,2H6a2,2,0,0,1-2-2V61A1,1,0,0,1,5,60Z" fill="#f9a435"/>
    <path d="M42,0C16.9,0,4.849,15.02,4.044,33.946A2,2,0,0,0,6.052,36h71.9a2,2,0,0,0,2.008-2.054C79.151,15.02,67.1,0,42,0Z" fill="#ffb45a"/>
    <path d="M4,70a4,4,0,0,0,4,4H76a4,4,0,0,0,4-4V66H4Z" fill="#ffb45a"/>
    <rect y="46" width="84" height="16" rx="2" fill="#8f5229"/>
    <path d="M34.672,63.781,8,46H68L41.328,63.781A6,6,0,0,1,34.672,63.781Z" fill="#ffe54c"/>
    <rect x="2" y="36" width="80" height="6" rx="1" fill="#e52c54"/>
    <path d="M82,46.593a4.5,4.5,0,0,1-6.395,3.819A4.322,4.322,0,0,0,73.717,50c-3.962,0-3.962,4-7.923,4s-3.963-4-7.926-4-3.963,4-7.926,4-3.963-4-7.926-4-3.962,4-7.924,4-3.963-4-7.925-4S22.2,54,18.24,54s-3.97-4-7.94-4a4.34,4.34,0,0,0-1.9.417C5.486,51.8,2,50.141,2,47.159v-.566A4.842,4.842,0,0,1,7.058,42H76.942A4.842,4.842,0,0,1,82,46.593Z" fill="#bddd5d"/>
    <g>
      <circle cx="25" cy="9" r="1" fill="#ffe54c"/>
      <circle cx="53" cy="19" r="1" fill="#ffe54c"/>
      <circle cx="37" cy="11" r="1" fill="#ffe54c"/>
      <circle cx="69" cy="19" r="1" fill="#ffe54c"/>
      <circle cx="27" cy="15" r="1" fill="#ffe54c"/>
      <circle cx="17" cy="19" r="1" fill="#ffe54c"/>
      <circle cx="45" cy="15" r="1" fill="#ffe54c"/>
      <circle cx="59" cy="13" r="1" fill="#ffe54c"/>
      <circle cx="53" cy="7" r="1" fill="#ffe54c"/>
      <circle cx="67" cy="11" r="1" fill="#ffe54c"/>
      <circle cx="37" cy="19" r="1" fill="#ffe54c"/>
      <circle cx="33" cy="5" r="1" fill="#ffe54c"/>
      <circle cx="45" cy="5" r="1" fill="#ffe54c"/>
    </g>
  </g>
</svg>
