<svg xmlns="http://www.w3.org/2000/svg" width="87.738" height="84.613" viewBox="0 0 87.738 84.613">
  <title>hot-dog</title>
  <g>
    <path d="M15.506,66.707c-.121,0-.239,0-.36,0a10,10,0,0,1,.241-20h.144c7.926,0,31.125-7.578,33.791-31.306A10,10,0,0,1,69.2,17.635C65.283,52.474,32.515,66.707,15.506,66.707Z" fill="#f9a435"/>
    <path d="M12.044,77.053h-.058a12,12,0,0,1,.014-24c.015,0,.026,0,.039,0,10.642,0,39.395-7.706,45.013-42.943a12,12,0,1,1,23.7,3.78C73.362,60.242,35.638,77.053,12.044,77.053Z" fill="#c75828"/>
    <path d="M14.7,63.255a12.674,12.674,0,0,1-5.051-1.394,8.323,8.323,0,0,0-2.379-.819,2,2,0,0,1,.056-4A10.507,10.507,0,0,1,11.259,58.2c1.38.608,2.807,1.239,3.959,1A7.167,7.167,0,0,0,17.7,57.3a12.07,12.07,0,0,1,4.264-3.069,10.835,10.835,0,0,1,4.808-.18,7.481,7.481,0,0,0,3.594-.1,7.293,7.293,0,0,0,2.06-2.592,11.624,11.624,0,0,1,3.257-3.917,11.055,11.055,0,0,1,4.679-1.4,7.356,7.356,0,0,0,3.374-.969,7.238,7.238,0,0,0,1.33-3.087,11.669,11.669,0,0,1,2.051-4.565A11.164,11.164,0,0,1,51.179,34.8a7.263,7.263,0,0,0,2.971-1.9,7.161,7.161,0,0,0,.349-3.32,11.792,11.792,0,0,1,.595-4.975,11.044,11.044,0,0,1,3.052-3.686c1.01-.914,2.056-1.859,2.285-2.744a7.188,7.188,0,0,0-.638-3.217A11.772,11.772,0,0,1,58.9,9.934a2,2,0,1,1,3.975.455,8.9,8.9,0,0,0,.706,3.3c.565,1.686,1.207,3.6.719,5.489-.529,2.049-2.095,3.464-3.477,4.713a8.541,8.541,0,0,0-2.054,2.286,8.987,8.987,0,0,0-.275,3.3c.048,1.8.1,3.849-.953,5.542-1.107,1.777-3.019,2.649-4.7,3.419a8.653,8.653,0,0,0-2.685,1.585,8.886,8.886,0,0,0-1.237,3.049c-.489,1.733-1.045,3.7-2.547,5.01-1.558,1.361-3.62,1.656-5.439,1.917a8.54,8.54,0,0,0-3.038.772,8.8,8.8,0,0,0-2.042,2.652c-.918,1.519-1.959,3.241-3.707,4.106-1.885.935-3.972.7-5.812.5a8.276,8.276,0,0,0-3.047-.018A9.17,9.17,0,0,0,20.5,60.163c-1.306,1.276-2.656,2.6-4.49,2.964A6.644,6.644,0,0,1,14.7,63.255Z" fill="#ffe54c"/>
    <path d="M26.225,84.613a10,10,0,0,1-.213-20c9.137-.2,36.046-10.05,41.911-40.015A10,10,0,0,1,87.55,28.441c-7.355,37.574-40.81,55.73-61.1,56.17Z" fill="#ffb45a"/>
    <path d="M85.725,20.563a10.032,10.032,0,0,1-.175,1.878c-7.355,37.574-40.81,55.73-61.1,56.17l-.22,0A9.963,9.963,0,0,1,16.249,74.6c0,.08-.02.154-.019.234a10,10,0,0,0,10,9.783l.22,0c20.3-.44,53.75-18.6,61.105-56.17A9.937,9.937,0,0,0,85.725,20.563Z" fill="#f9a435"/>
  </g>
</svg>
