<svg xmlns="http://www.w3.org/2000/svg" width="88" height="71.283" viewBox="0 0 88 71.283">
  <title>nuts</title>
  <g>
    <g>
      <ellipse cx="67.573" cy="25.667" rx="26.49" ry="14.319" transform="matrix(0.295, -0.956, 0.956, 0.295, 23.129, 82.672)" fill="#8f5229"/>
      <path d="M82.938,5.672a41.413,41.413,0,0,0-16,22.047,41.416,41.416,0,0,0-.8-27.228c-7.7,2.375-14.9,10.1-18.147,20.635-4.545,14.736.346,29.327,10.926,32.591S81.762,47.68,86.307,32.944C89.556,22.41,87.964,11.973,82.938,5.672Z" fill="#b06841"/>
      <path d="M61.754,46.778c-10.476-3.232-15.36-17.57-11.042-32.157A38.084,38.084,0,0,0,48,21.126c-4.545,14.736.346,29.327,10.926,32.59S81.762,47.68,86.307,32.944c.036-.116.053-.231.088-.347C80.706,43.371,70.645,49.52,61.754,46.778Z" opacity="0.12"/>
    </g>
    <g>
      <path d="M30.764,12.7c-7.275-3.46-10.239-6.845-10.239-6.845s-2.113,3.973-8.4,9A32.56,32.56,0,0,0,.513,45.725C3.022,58.9,17.783,64.077,27.136,63S49.678,53.506,49.112,40.1A32.564,32.564,0,0,0,30.764,12.7Z" fill="#8f5229"/>
      <path d="M27.136,63a27.926,27.926,0,0,0,13.373-5.733c-.226-1.961-.144-4.072-1.555-5.276-2.2-1.876-3.1,2.7-5.095,1.7s-1.422-3.525-3.724-3.967-2.227,2.816-4.191,3.045-2.639-2.96-4.778-2-1.009,3.28-2.716,4.718S14.815,52.665,13.1,55c-1.093,1.488-.536,3.513-.3,5.466A27.944,27.944,0,0,0,27.136,63Z" fill="#b06841"/>
      <path d="M26.591,58.286C17.3,59.361,2.675,54.251.029,41.255a29.29,29.29,0,0,0,.484,4.47C3.022,58.9,17.783,64.077,27.136,63S49.678,53.506,49.112,40.1a29.19,29.19,0,0,0-.55-4.463C48.954,48.9,35.885,57.211,26.591,58.286Z" opacity="0.08"/>
    </g>
    <path d="M78.611,62.718A11.6,11.6,0,0,1,76.83,64.41c-15.043,11.52-31.851,7.074-41.836-2.443A11.5,11.5,0,0,1,50.865,45.315c5.82,5.548,10.455,2,11.977.832A11.5,11.5,0,0,1,78.611,62.718Z" fill="#fad1a5"/>
    <path d="M78.611,56.46a11.6,11.6,0,0,1-1.781,1.692c-15.043,11.521-31.851,7.074-41.836-2.443a11.36,11.36,0,0,1-3.075-5.179,11.454,11.454,0,0,0,3.075,11.437C44.979,71.484,61.787,75.93,76.83,64.41a11.648,11.648,0,0,0,1.781-1.692,11.51,11.51,0,0,0,2.263-10.607A11.411,11.411,0,0,1,78.611,56.46Z" fill="#efb67d"/>
    <g opacity="0.12">
      <path d="M20.128,11.431c.256,3.4.032,7.29-1.572,10.427A29.009,29.009,0,0,0,15.379,37.1a1,1,0,0,0,.991.884,1.107,1.107,0,0,0,.115-.006,1,1,0,0,0,.88-1.106,27.52,27.52,0,0,1,2.972-14.1,16.951,16.951,0,0,0,1.569-4.979,27.893,27.893,0,0,1-1.741-6.509C20.154,11.33,20.139,11.381,20.128,11.431Z"/>
      <path d="M19.763,7.034c-.3.431-.687.948-1.2,1.579-.387,3.347-1.559,7.52-4.83,10.149a25.691,25.691,0,0,0-7.5,10.611,1,1,0,1,0,1.893.647,23.957,23.957,0,0,1,6.855-9.7,15.512,15.512,0,0,0,5.148-8.89c.011-.05.026-.1.037-.151A39.535,39.535,0,0,1,19.763,7.034Z"/>
      <path d="M20.362,6.131c-.118.195-.323.507-.6.9a39.535,39.535,0,0,0,.4,4.246,27.893,27.893,0,0,0,1.741,6.509,16.952,16.952,0,0,0,2.664,4.489A27.522,27.522,0,0,1,30.683,35.33a1,1,0,0,0,.992.882.929.929,0,0,0,.117-.007,1,1,0,0,0,.877-1.107A29.015,29.015,0,0,0,26.1,20.985c-2.279-2.688-3.386-6.43-3.912-9.793A26.054,26.054,0,0,1,20.362,6.131Z"/>
      <path d="M30.09,16.869c-3.786-1.813-5.88-5.607-7.021-8.778a19.672,19.672,0,0,1-2.544-2.237s-.064.112-.163.277a26.054,26.054,0,0,0,1.822,5.061,15.516,15.516,0,0,0,7.043,7.481,24.071,24.071,0,0,1,8.889,7.877,1,1,0,0,0,1.7-1.061A25.694,25.694,0,0,0,30.09,16.869Z"/>
    </g>
  </g>
</svg>
