<svg xmlns="http://www.w3.org/2000/svg" width="48" height="84.873" viewBox="0 0 48 84.873">
  <title>pear</title>
  <g>
    <path d="M26.713,4.889c-3.722,4.271-3.247,11.092-3.247,11.092s7.146-.178,10.869-4.449S37.264.478,37.264.478,30.435.619,26.713,4.889Z" fill="#bddd5d"/>
    <path d="M24.538,19.734a2,2,0,0,1-2-1.984c-.006-.378-.262-8.685-10.417-13.976A2,2,0,0,1,13.969.227c12.4,6.46,12.568,17.055,12.569,17.5a2,2,0,0,1-2,2.005Z" fill="#3a3735"/>
    <path d="M9.6,32.073a14.4,14.4,0,0,1,28.8,0c0,9.6,9.6,19.9,9.6,28.8a24,24,0,1,1-48,0C0,51.975,9.6,41.673,9.6,32.073Z" fill="#bddd5d"/>
    <path d="M24,76.873A24,24,0,0,1,.438,57.382,15.392,15.392,0,0,0,0,60.872a24,24,0,1,0,48,0,15.392,15.392,0,0,0-.438-3.49A23.994,23.994,0,0,1,24,76.873Z" fill="#a1cc56"/>
  </g>
</svg>
