<svg xmlns="http://www.w3.org/2000/svg" width="88" height="69.332" viewBox="0 0 88 69.332">
  <title>pepper</title>
  <g>
    <g>
      <path d="M45.476,62.064c5-1.262,10.809-3.748,13.825-12.431,3.141-9.046-2.24-27.233-11.833-37.692,0,0,1.745,6.645-2.462,11.6C45.006,23.539,44,7.8,34.678,0c0,0,.677,16.349-5.587,24.96-3.455,4.749-7.489,10.03-7.908,18.471-.4,8.142,3.966,17.258,16.246,18.938A26.941,26.941,0,0,0,45.476,62.064Z" fill="#f9a435"/>
      <path d="M49.868,50.615c2.165-8.193-2.889-15.826-2.889-15.826s-.794,7.868-4.6,12.512C34.7,40.335,38.3,26.9,38.3,26.9c-11.145,8.558-10.94,18.686-7.729,25.812,2.313,5.131,8.291,8.547,8.291,8.547S46.831,62.112,49.868,50.615Z" fill="#ffb45a"/>
    </g>
    <g>
      <path d="M70.545,28.452l-1.485,1.72L67.391,32.05c-1.15,1.235-2.3,2.477-3.492,3.674a94.343,94.343,0,0,1-7.36,6.772A61.228,61.228,0,0,1,40.7,52.147a27.534,27.534,0,0,1-4.166,1.4c-1.624.36-3.266.7-4.9.9a43.639,43.639,0,0,1-9.866.3A31.568,31.568,0,0,1,12.1,52.479a29.8,29.8,0,0,1-4.549-2.312,26.046,26.046,0,0,1-3.982-3.1L3.3,46.807A1.948,1.948,0,0,0,.173,49.016c3.606,7.924,10.753,13.357,18.761,16.65a51.516,51.516,0,0,0,12.51,3.152c2.132.289,4.258.423,6.392.512a43.7,43.7,0,0,0,6.977-.446,43.461,43.461,0,0,0,12.936-4.207,65.447,65.447,0,0,0,10.944-7.021,80.257,80.257,0,0,0,9.253-8.547c1.41-1.531,2.777-3.095,4.057-4.742.647-.817,1.279-1.652,1.907-2.5.659-.882,1.167-1.654,1.915-2.8,2.811-4.294.5-8.429-3.79-11.241-3.945-2.582-8.022-3.4-11.018.076Z" fill="#e52c54"/>
      <path d="M82.035,27.829c-3.434-2.248-6.966-3.154-9.8-1.059,3.736,2.539,5.743,6.2,3.325,9.955-.65,1.011-1.093,1.694-1.668,2.474-.547.751-1.1,1.489-1.663,2.211-1.117,1.456-2.311,2.837-3.544,4.189a68.917,68.917,0,0,1-8.1,7.532,56.259,56.259,0,0,1-9.61,6.159,37.558,37.558,0,0,1-11.4,3.633,38.089,38.089,0,0,1-6.162.336c-1.887-.1-3.768-.237-5.654-.514a45.887,45.887,0,0,1-11.086-2.919C10.187,57.083,4.348,52.739.9,46.614a1.916,1.916,0,0,0-.353.244,1.956,1.956,0,0,0-.37,2.158c3.606,7.924,10.753,13.357,18.761,16.65a51.516,51.516,0,0,0,12.51,3.152c2.132.289,4.258.423,6.392.512a43.7,43.7,0,0,0,6.977-.446,43.461,43.461,0,0,0,12.936-4.207,65.447,65.447,0,0,0,10.944-7.021,80.346,80.346,0,0,0,9.253-8.547c1.41-1.531,2.777-3.095,4.057-4.742.647-.817,1.279-1.652,1.907-2.5.659-.882,1.167-1.654,1.915-2.8C88.636,34.776,86.329,30.641,82.035,27.829Z" fill="#d1194a"/>
      <path d="M79.284,30.669c-1.969-1.768-1.361-3.423-.317-3.714,1.834-.511,6.42-3.012,6.405-10.936,0-.831-.025-1.689.806-1.714a1.873,1.873,0,0,1,1.736,1.663C88.5,26.025,85.972,30.812,85.038,32,84.32,32.912,82.644,33.686,79.284,30.669Z" fill="#a1cc56"/>
      <path d="M87.914,15.968A1.875,1.875,0,0,0,86.178,14.3a.75.75,0,0,0-.461.157,1.747,1.747,0,0,1,.451.989c.584,10.056-1.941,14.844-2.875,16.031a2.094,2.094,0,0,1-1.779.8c1.913,1,2.987.4,3.524-.285C85.972,30.812,88.5,26.025,87.914,15.968Z" fill="#7b9e3a"/>
    </g>
  </g>
</svg>
