<svg xmlns="http://www.w3.org/2000/svg" width="88" height="66.695" viewBox="0 0 88 66.695">
  <title>potatoes</title>
  <g>
    <path d="M15.758,18.965C22.076,14.821,25,7.509,30.407,4.011,37.022-.271,49.671-4.173,56.4,9.418c6.3,12.723,2.556,38.622-19.378,48.176-20.085,8.749-32.7,1.884-35.931-7.132C-.586,45.78-2.859,31.172,15.758,18.965Z" fill="#b78655"/>
    <path d="M37.417,43.017c-19.306,8.409-32.031,3.11-36.7-5.1a22.245,22.245,0,0,0,.371,12.542c3.23,9.016,15.846,15.881,35.931,7.132C54.553,49.958,60.439,31.9,58.89,18.449A38.138,38.138,0,0,1,37.417,43.017Z" opacity="0.12"/>
    <path d="M47.126,28.281C53.351,25.9,61.687,14.774,67.063,12.947c8.307-2.823,20.055,1.568,20.886,15.808.729,12.5-6.257,30.873-26.621,36.391-15.791,4.279-22.865-.92-27.854-8.136C31.055,53.512,28.784,35.282,47.126,28.281Z" fill="#b06841"/>
    <path d="M61.391,54.622c-16.548,4.484-24.037-.882-29.3-8.408-.689,4.962.333,9.274,1.386,10.8,4.989,7.216,12.063,12.415,27.854,8.136C81.667,59.635,88.659,41.3,87.95,28.8A37.054,37.054,0,0,1,61.391,54.622Z" opacity="0.12"/>
    <g opacity="0.5">
      <circle cx="44" cy="36" r="2" fill="#efb67d"/>
      <circle cx="66" cy="32" r="2" fill="#efb67d"/>
      <circle cx="57" cy="39" r="1" fill="#efb67d"/>
      <circle cx="69" cy="21" r="1" fill="#efb67d"/>
      <circle cx="61" cy="27" r="1" fill="#efb67d"/>
    </g>
    <g opacity="0.5">
      <circle cx="40" cy="22" r="2" fill="#efb67d"/>
      <circle cx="28" cy="18" r="2" fill="#efb67d"/>
      <circle cx="11" cy="31" r="1" fill="#efb67d"/>
      <circle cx="37" cy="9" r="1" fill="#efb67d"/>
      <circle cx="25" cy="34.999" r="1" fill="#efb67d"/>
    </g>
  </g>
</svg>
