<svg xmlns="http://www.w3.org/2000/svg" width="90.343" height="45.198" viewBox="0 0 90.343 45.198">
  <title>salmon</title>
  <g>
    <rect x="9.71" y="32.78" width="80" height="4" rx="1" transform="translate(-6.35 11.585) rotate(-12.501)" fill="#586469"/>
    <g>
      <path d="M10.054,38.379c2.15-3.366,4.351-6.589,8.663-9.33,7.273-4.622,27.628-10.166,32.72-10.318s17.631,1.625,26.122,4.3c8.152,2.572,12.454,1.1,12.784.98L80.224,6.334s-3.779.657-12.269-2.021S46.924-.142,41.833.009s-25.447,5.7-32.72,10.317A26.053,26.053,0,0,0,1.19,18.392a6.908,6.908,0,0,0-.521,6.814S7.8,40.106,8.978,42.178C8.648,41.344,9,40.034,10.054,38.379Z" fill="#faa096"/>
      <path d="M88.126,26.262a2.677,2.677,0,0,0,1.766-1.379l.451-.867c-.33.121-4.632,1.591-12.784-.981-8.491-2.679-21.031-4.455-26.122-4.3s-25.447,5.7-32.719,10.318c-4.313,2.741-6.514,5.964-8.664,9.33-2.234,3.5-1.412,5.53,2.631,4.533Z" fill="#f57f7f"/>
      <g opacity="0.15">
        <path d="M15.059,32.668C13.7,29.292,6.94,15.391,5.742,12.933c-.534.49-1.04.985-1.5,1.484,1.724,3.544,7.734,15.936,8.962,19,.932,2.322,4.875,5.151,8.731,7.458l2.872-.634C20.527,37.806,15.861,34.665,15.059,32.668Z" fill="#fff"/>
        <path d="M29.131,28.64a47.774,47.774,0,0,0-3.753-3.4c-1.132-.8-4.088-7.7-6.043-12.269-1.215-2.838-2.076-4.821-2.733-6.2-.641.249-1.254.5-1.856.752.784,1.641,1.837,4.1,2.75,6.231,3.1,7.247,5.247,12.074,6.733,13.118.586.411,1.947,1.708,3.522,3.209,3.132,2.986,6.042,5.687,8.55,7.613l2.6-.573A95.841,95.841,0,0,1,29.131,28.64Z" fill="#fff"/>
        <path d="M58.866,32.72A64.347,64.347,0,0,0,62.433,19.6c.064-1.422-4.114-11.55-7.109-18.219q-1.191-.2-2.352-.377c2.956,6.461,7.35,17.211,7.463,18.506a52.718,52.718,0,0,1-3.993,13.746Z" fill="#fff"/>
        <path d="M40.639,25.741a53.18,53.18,0,0,0-3.367-4.37c-.686-.879-4.549-10.141-7.976-18.742q-.959.265-1.934.552C29.39,8.274,34.74,21.567,35.781,22.7a52.987,52.987,0,0,1,3.237,4.209,54.328,54.328,0,0,0,7.166,8.606l2.515-.555C45.739,32.785,42.917,28.89,40.639,25.741Z" fill="#fff"/>
        <path d="M68.332,30.631c2.561-3.339,4.877-7.1,4.743-9.083C72.889,18.8,68.561,8.627,66.481,3.87c-.8-.231-1.633-.453-2.481-.669,2.9,6.53,6.93,16.263,7.079,18.482.114,1.682-3.023,6.23-5.808,9.623Z" fill="#fff"/>
        <path d="M73.919,5.84c.171.322.38.713.636,1.191,5.36,10.007,8.221,15.774,8.509,17.156A37.443,37.443,0,0,1,79.3,28.21l3.607-.8a12.433,12.433,0,0,0,2.1-2.647c.31-.855-.134-2.7-8.618-18.542C75.671,6.141,74.858,6.019,73.919,5.84Z" fill="#fff"/>
        <path d="M41.75,4.185A159.176,159.176,0,0,1,47.5,19.392c1.628,5.351,2.523,8.974,3.312,12.17.238.962.467,1.877.7,2.782l1.955-.432c-.237-.919-.471-1.849-.713-2.83-.8-3.219-1.7-6.87-3.34-12.272a161.015,161.015,0,0,0-5.816-15.4C43.086,2.2,42.572.981,42.187.007c-.115,0-.246,0-.354,0a17.106,17.106,0,0,0-1.718.175C40.476,1.146,41,2.4,41.75,4.185Z" fill="#fff"/>
      </g>
    </g>
  </g>
</svg>
