<svg xmlns="http://www.w3.org/2000/svg" width="88" height="58.807" viewBox="0 0 88 58.807">
  <title>steak</title>
  <g>
    <path d="M87.993,29.076a12.119,12.119,0,0,1-.384,2.656c-1.167,4.55-8.517,14.233-23.217,8.167s-23.1,8.4-34.066,10.383S3.454,48.932.693,35a35.12,35.12,0,0,1-.684-6.571L0,28.43l0,7.787A35.147,35.147,0,0,0,.693,43C3.454,56.932,19.359,60.265,30.326,58.282S49.692,41.832,64.392,47.9s22.05-3.617,23.217-8.167a12.2,12.2,0,0,0,.381-2.59L88,29.078Z" fill="#8f5229"/>
    <path d="M6.642,9.916C16.792-.351,35.926-4.318,63.109,6.182s25.358,22.2,24.5,25.55c-1.167,4.55-8.517,14.233-23.217,8.167s-23.1,8.4-34.066,10.383S3.454,48.932.692,35C-1.874,22.049,3.276,13.32,6.642,9.916Z" fill="#b06841"/>
    <ellipse cx="23.673" cy="12.409" rx="7" ry="5" fill="#fff"/>
    <ellipse cx="23.673" cy="12.409" rx="5" ry="3" fill="#ede7e2"/>
    <path d="M30,41a1,1,0,0,1-.9-1.426L43.945,8.011a1,1,0,0,1,1.811.852L30.905,40.42A1,1,0,0,1,30,41Z" fill="#8f5229"/>
    <path d="M41.605,37.581a1,1,0,0,1-.9-1.426L53.867,8.176a1,1,0,0,1,1.811.852L42.512,37.006A1,1,0,0,1,41.605,37.581Z" fill="#8f5229"/>
    <path d="M52.926,34.774a1,1,0,0,1-.905-1.426L62.168,11.79a1,1,0,1,1,1.811.851L53.832,34.2A1,1,0,0,1,52.926,34.774Z" fill="#8f5229"/>
    <path d="M63.733,33.059a.987.987,0,0,1-.424-.095,1,1,0,0,1-.48-1.331L69.761,16.9a1,1,0,1,1,1.81.851L64.64,32.485A1,1,0,0,1,63.733,33.059Z" fill="#8f5229"/>
    <path d="M73.217,34.158a1,1,0,0,1-.905-1.426l4.312-9.163a1,1,0,1,1,1.811.851l-4.312,9.164A1,1,0,0,1,73.217,34.158Z" fill="#8f5229"/>
  </g>
</svg>
